<?xml version="1.0" encoding="UTF-8" standalone="no"?>
<!DOCTYPE svg PUBLIC "-//W3C//DTD SVG 1.1//EN"
 "http://www.w3.org/Graphics/SVG/1.1/DTD/svg11.dtd">
<!-- Generated by graphviz version 3.0.0 (0)
 -->
<!-- Pages: 1 -->
<svg width="682pt" height="642pt"
 viewBox="0.00 0.00 682.00 642.00" xmlns="http://www.w3.org/2000/svg" xmlns:xlink="http://www.w3.org/1999/xlink">
<g id="graph0" class="graph" transform="scale(1 1) rotate(0) translate(4 638)">
<polygon fill="white" stroke="transparent" points="-4,4 -4,-638 678,-638 678,4 -4,4"/>
<g id="clust1" class="cluster">
<title>cluster_I0</title>
<polygon fill="none" stroke="black" points="252,-504 252,-626 470,-626 470,-504 252,-504"/>
<text text-anchor="start" x="354" y="-611.8" font-family="Times,serif" font-size="14.00">I</text>
<text text-anchor="start" x="360" y="-611.8" font-family="Times,serif" baseline-shift="sub" font-size="14.00">0</text>
</g>
<g id="clust2" class="cluster">
<title>cluster_I1</title>
<polygon fill="none" stroke="black" points="121,-224 121,-331 371,-331 371,-224 121,-224"/>
<text text-anchor="start" x="239" y="-316.8" font-family="Times,serif" font-size="14.00">I</text>
<text text-anchor="start" x="245" y="-316.8" font-family="Times,serif" baseline-shift="sub" font-size="14.00">1</text>
</g>
<g id="clust3" class="cluster">
<title>cluster_I2</title>
<polygon fill="none" stroke="black" points="379,-240 379,-315 597,-315 597,-240 379,-240"/>
<text text-anchor="start" x="481" y="-300.8" font-family="Times,serif" font-size="14.00">I</text>
<text text-anchor="start" x="487" y="-300.8" font-family="Times,serif" baseline-shift="sub" font-size="14.00">2</text>
</g>
<g id="clust4" class="cluster">
<title>cluster_I3</title>
<polygon fill="none" stroke="black" points="252,-364 252,-471 470,-471 470,-364 252,-364"/>
<text text-anchor="start" x="354" y="-456.8" font-family="Times,serif" font-size="14.00">I</text>
<text text-anchor="start" x="360" y="-456.8" font-family="Times,serif" baseline-shift="sub" font-size="14.00">3</text>
</g>
<g id="clust5" class="cluster">
<title>cluster_I4</title>
<polygon fill="none" stroke="black" points="478,-380 478,-455 666,-455 666,-380 478,-380"/>
<text text-anchor="start" x="565" y="-440.8" font-family="Times,serif" font-size="14.00">I</text>
<text text-anchor="start" x="571" y="-440.8" font-family="Times,serif" baseline-shift="sub" font-size="14.00">4</text>
</g>
<g id="clust6" class="cluster">
<title>cluster_I5</title>
<polygon fill="none" stroke="black" points="8,-116 8,-191 198,-191 198,-116 8,-116"/>
<text text-anchor="start" x="96" y="-176.8" font-family="Times,serif" font-size="14.00">I</text>
<text text-anchor="start" x="102" y="-176.8" font-family="Times,serif" baseline-shift="sub" font-size="14.00">5</text>
</g>
<g id="clust7" class="cluster">
<title>cluster_I6</title>
<polygon fill="none" stroke="black" points="206,-116 206,-191 428,-191 428,-116 206,-116"/>
<text text-anchor="start" x="310" y="-176.8" font-family="Times,serif" font-size="14.00">I</text>
<text text-anchor="start" x="316" y="-176.8" font-family="Times,serif" baseline-shift="sub" font-size="14.00">6</text>
</g>
<g id="clust8" class="cluster">
<title>cluster_I7</title>
<polygon fill="none" stroke="black" points="206,-8 206,-83 428,-83 428,-8 206,-8"/>
<text text-anchor="start" x="310" y="-68.8" font-family="Times,serif" font-size="14.00">I</text>
<text text-anchor="start" x="316" y="-68.8" font-family="Times,serif" baseline-shift="sub" font-size="14.00">7</text>
</g>
<!-- node0 -->
<g id="node1" class="node">
<title>node0</title>
<text text-anchor="middle" x="361" y="-579.8" font-family="Times,serif" font-size="14.00">[Pair &#45;&gt; • ( Pair ), {$, (}]</text>
<text text-anchor="middle" x="361" y="-564.8" font-family="Times,serif" font-size="14.00">[List &#45;&gt; • Pair, {$, (}]</text>
<text text-anchor="middle" x="361" y="-549.8" font-family="Times,serif" font-size="14.00">[List &#45;&gt; • List Pair, {$, (}]</text>
<text text-anchor="middle" x="361" y="-534.8" font-family="Times,serif" font-size="14.00">[Pair &#45;&gt; • ( ), {$, (}]</text>
<text text-anchor="middle" x="361" y="-519.8" font-family="Times,serif" font-size="14.00">[S &#45;&gt; • List, {$}]</text>
</g>
<!-- node1 -->
<g id="node2" class="node">
<title>node1</title>
<text text-anchor="middle" x="232" y="-284.8" font-family="Times,serif" font-size="14.00">[Pair &#45;&gt; ( • Pair ), {$, (, )}]</text>
<text text-anchor="middle" x="232" y="-269.8" font-family="Times,serif" font-size="14.00">[Pair &#45;&gt; • ( Pair ), {)}]</text>
<text text-anchor="middle" x="232" y="-254.8" font-family="Times,serif" font-size="14.00">[Pair &#45;&gt; • ( ), {)}]</text>
<text text-anchor="middle" x="232" y="-239.8" font-family="Times,serif" font-size="14.00">[Pair &#45;&gt; ( • ), {$, (, )}]</text>
</g>
<!-- node0&#45;&gt;node1 -->
<g id="edge1" class="edge">
<title>node0&#45;&gt;node1</title>
<path fill="none" stroke="black" d="M265.91,-504C254.81,-494.53 244.98,-483.56 238,-471 216.29,-431.96 214.51,-381.91 218.29,-341.15"/>
<polygon fill="black" stroke="black" points="221.79,-341.31 219.36,-331 214.83,-340.58 221.79,-341.31"/>
<text text-anchor="middle" x="243" y="-402.3" font-family="Times,serif" font-size="14.00"> (</text>
</g>
<!-- node3 -->
<g id="node4" class="node">
<title>node3</title>
<text text-anchor="middle" x="361" y="-424.8" font-family="Times,serif" font-size="14.00">[Pair &#45;&gt; • ( Pair ), {$, (}]</text>
<text text-anchor="middle" x="361" y="-409.8" font-family="Times,serif" font-size="14.00">[List &#45;&gt; List • Pair, {$, (}]</text>
<text text-anchor="middle" x="361" y="-394.8" font-family="Times,serif" font-size="14.00">[Pair &#45;&gt; • ( ), {$, (}]</text>
<text text-anchor="middle" x="361" y="-379.8" font-family="Times,serif" font-size="14.00">[S &#45;&gt; List •, {$}]</text>
</g>
<!-- node0&#45;&gt;node3 -->
<g id="edge6" class="edge">
<title>node0&#45;&gt;node3</title>
<path fill="none" stroke="black" d="M361,-504C361,-496.64 361,-488.91 361,-481.16"/>
<polygon fill="black" stroke="black" points="364.5,-481 361,-471 357.5,-481 364.5,-481"/>
<text text-anchor="middle" x="377" y="-482.8" font-family="Times,serif" font-size="14.00"> List</text>
</g>
<!-- node4 -->
<g id="node5" class="node">
<title>node4</title>
<text text-anchor="middle" x="572" y="-402.3" font-family="Times,serif" font-size="14.00">[List &#45;&gt; Pair •, {$, (}]</text>
</g>
<!-- node0&#45;&gt;node4 -->
<g id="edge7" class="edge">
<title>node0&#45;&gt;node4</title>
<path fill="none" stroke="black" d="M431.33,-504C451.48,-490.11 473.57,-474.88 494.14,-460.69"/>
<polygon fill="black" stroke="black" points="496.15,-463.56 502.39,-455 492.17,-457.79 496.15,-463.56"/>
<text text-anchor="middle" x="483" y="-482.8" font-family="Times,serif" font-size="14.00"> Pair</text>
</g>
<!-- node1&#45;&gt;node1 -->
<g id="edge2" class="edge">
<title>node1&#45;&gt;node1</title>
<path fill="none" stroke="black" d="M335.27,-275.01C346.08,-273.25 353,-270.25 353,-266 353,-263.28 350.16,-261.07 345.28,-259.37"/>
<polygon fill="black" stroke="black" points="345.81,-255.9 335.27,-256.99 344.19,-262.71 345.81,-255.9"/>
<text text-anchor="middle" x="358" y="-262.3" font-family="Times,serif" font-size="14.00"> (</text>
</g>
<!-- node5 -->
<g id="node6" class="node">
<title>node5</title>
<text text-anchor="middle" x="103" y="-138.3" font-family="Times,serif" font-size="14.00">[Pair &#45;&gt; ( ) •, {$, (, )}]</text>
</g>
<!-- node1&#45;&gt;node5 -->
<g id="edge3" class="edge">
<title>node1&#45;&gt;node5</title>
<path fill="none" stroke="black" d="M188.65,-224C179.87,-215.7 170.5,-206.84 161.31,-198.14"/>
<polygon fill="black" stroke="black" points="163.42,-195.33 153.75,-191 158.61,-200.41 163.42,-195.33"/>
<text text-anchor="middle" x="180" y="-202.8" font-family="Times,serif" font-size="14.00"> )</text>
</g>
<!-- node6 -->
<g id="node7" class="node">
<title>node6</title>
<text text-anchor="middle" x="317" y="-138.3" font-family="Times,serif" font-size="14.00">[Pair &#45;&gt; ( Pair • ), {$, (, )}]</text>
</g>
<!-- node1&#45;&gt;node6 -->
<g id="edge8" class="edge">
<title>node1&#45;&gt;node6</title>
<path fill="none" stroke="black" d="M260.56,-224C266.06,-216.12 271.9,-207.73 277.67,-199.45"/>
<polygon fill="black" stroke="black" points="280.71,-201.21 283.56,-191 274.97,-197.2 280.71,-201.21"/>
<text text-anchor="middle" x="294" y="-202.8" font-family="Times,serif" font-size="14.00"> Pair</text>
</g>
<!-- node2 -->
<g id="node3" class="node">
<title>node2</title>
<text text-anchor="middle" x="488" y="-262.3" font-family="Times,serif" font-size="14.00">[List &#45;&gt; List Pair •, {$, (}]</text>
</g>
<!-- node3&#45;&gt;node1 -->
<g id="edge4" class="edge">
<title>node3&#45;&gt;node1</title>
<path fill="none" stroke="black" d="M322.68,-364C315.08,-355.87 306.89,-347.12 298.67,-338.32"/>
<polygon fill="black" stroke="black" points="301.21,-335.91 291.82,-331 296.1,-340.69 301.21,-335.91"/>
<text text-anchor="middle" x="316" y="-342.8" font-family="Times,serif" font-size="14.00"> (</text>
</g>
<!-- node3&#45;&gt;node2 -->
<g id="edge9" class="edge">
<title>node3&#45;&gt;node2</title>
<path fill="none" stroke="black" d="M398.73,-364C410.68,-351.01 424.1,-336.43 436.83,-322.6"/>
<polygon fill="black" stroke="black" points="439.63,-324.73 443.83,-315 434.48,-319.99 439.63,-324.73"/>
<text text-anchor="middle" x="437" y="-342.8" font-family="Times,serif" font-size="14.00"> Pair</text>
</g>
<!-- node7 -->
<g id="node8" class="node">
<title>node7</title>
<text text-anchor="middle" x="317" y="-30.3" font-family="Times,serif" font-size="14.00">[Pair &#45;&gt; ( Pair ) •, {$, (, )}]</text>
</g>
<!-- node6&#45;&gt;node7 -->
<g id="edge5" class="edge">
<title>node6&#45;&gt;node7</title>
<path fill="none" stroke="black" d="M317,-116C317,-109.09 317,-101.29 317,-93.33"/>
<polygon fill="black" stroke="black" points="320.5,-93 317,-83 313.5,-93 320.5,-93"/>
<text text-anchor="middle" x="322" y="-94.8" font-family="Times,serif" font-size="14.00"> )</text>
</g>
</g>
</svg>
