<?xml version="1.0" encoding="UTF-8" standalone="no"?>
<!DOCTYPE svg PUBLIC "-//W3C//DTD SVG 1.1//EN"
 "http://www.w3.org/Graphics/SVG/1.1/DTD/svg11.dtd">
<!-- Generated by graphviz version 3.0.0 (0)
 -->
<!-- Pages: 1 -->
<svg width="680pt" height="919pt"
 viewBox="0.00 0.00 680.00 919.00" xmlns="http://www.w3.org/2000/svg" xmlns:xlink="http://www.w3.org/1999/xlink">
<g id="graph0" class="graph" transform="scale(1 1) rotate(0) translate(4 915)">
<polygon fill="white" stroke="transparent" points="-4,4 -4,-915 676,-915 676,4 -4,4"/>
<g id="clust1" class="cluster">
<title>cluster_I0</title>
<polygon fill="none" stroke="black" points="172,-721 172,-903 356,-903 356,-721 172,-721"/>
<text text-anchor="start" x="257" y="-888.8" font-family="Times,serif" font-size="14.00">I</text>
<text text-anchor="start" x="263" y="-888.8" font-family="Times,serif" baseline-shift="sub" font-size="14.00">0</text>
</g>
<g id="clust2" class="cluster">
<title>cluster_I1</title>
<polygon fill="none" stroke="black" points="8,-573.5 8,-650.5 164,-650.5 164,-573.5 8,-573.5"/>
<text text-anchor="start" x="79" y="-636.3" font-family="Times,serif" font-size="14.00">I</text>
<text text-anchor="start" x="85" y="-636.3" font-family="Times,serif" baseline-shift="sub" font-size="14.00">1</text>
</g>
<g id="clust3" class="cluster">
<title>cluster_I2</title>
<polygon fill="none" stroke="black" points="128,-241 128,-318 304,-318 304,-241 128,-241"/>
<text text-anchor="start" x="209" y="-303.8" font-family="Times,serif" font-size="14.00">I</text>
<text text-anchor="start" x="215" y="-303.8" font-family="Times,serif" baseline-shift="sub" font-size="14.00">2</text>
</g>
<g id="clust4" class="cluster">
<title>cluster_I3</title>
<polygon fill="none" stroke="black" points="172,-536 172,-688 356,-688 356,-536 172,-536"/>
<text text-anchor="start" x="257" y="-673.8" font-family="Times,serif" font-size="14.00">I</text>
<text text-anchor="start" x="263" y="-673.8" font-family="Times,serif" baseline-shift="sub" font-size="14.00">3</text>
</g>
<g id="clust5" class="cluster">
<title>cluster_I4</title>
<polygon fill="none" stroke="black" points="296,-366 296,-503 472,-503 472,-366 296,-366"/>
<text text-anchor="start" x="377" y="-488.8" font-family="Times,serif" font-size="14.00">I</text>
<text text-anchor="start" x="383" y="-488.8" font-family="Times,serif" baseline-shift="sub" font-size="14.00">4</text>
</g>
<g id="clust6" class="cluster">
<title>cluster_I5</title>
<polygon fill="none" stroke="black" points="312,-241 312,-318 456,-318 456,-241 312,-241"/>
<text text-anchor="start" x="377" y="-303.8" font-family="Times,serif" font-size="14.00">I</text>
<text text-anchor="start" x="383" y="-303.8" font-family="Times,serif" baseline-shift="sub" font-size="14.00">5</text>
</g>
<g id="clust7" class="cluster">
<title>cluster_I6</title>
<polygon fill="none" stroke="black" points="464,-226 464,-333 664,-333 664,-226 464,-226"/>
<text text-anchor="start" x="557" y="-318.8" font-family="Times,serif" font-size="14.00">I</text>
<text text-anchor="start" x="563" y="-318.8" font-family="Times,serif" baseline-shift="sub" font-size="14.00">6</text>
</g>
<g id="clust8" class="cluster">
<title>cluster_I7</title>
<polygon fill="none" stroke="black" points="485,-117 485,-192 657,-192 657,-117 485,-117"/>
<text text-anchor="start" x="564" y="-177.8" font-family="Times,serif" font-size="14.00">I</text>
<text text-anchor="start" x="570" y="-177.8" font-family="Times,serif" baseline-shift="sub" font-size="14.00">7</text>
</g>
<g id="clust9" class="cluster">
<title>cluster_I8</title>
<polygon fill="none" stroke="black" points="337,-117 337,-192 477,-192 477,-117 337,-117"/>
<text text-anchor="start" x="400" y="-177.8" font-family="Times,serif" font-size="14.00">I</text>
<text text-anchor="start" x="406" y="-177.8" font-family="Times,serif" baseline-shift="sub" font-size="14.00">8</text>
</g>
<g id="clust10" class="cluster">
<title>cluster_I9</title>
<polygon fill="none" stroke="black" points="485,-8 485,-83 657,-83 657,-8 485,-8"/>
<text text-anchor="start" x="564" y="-68.8" font-family="Times,serif" font-size="14.00">I</text>
<text text-anchor="start" x="570" y="-68.8" font-family="Times,serif" baseline-shift="sub" font-size="14.00">9</text>
</g>
<g id="clust11" class="cluster">
<title>cluster_I10</title>
<polygon fill="none" stroke="black" points="128,-116 128,-193 304,-193 304,-116 128,-116"/>
<text text-anchor="start" x="205" y="-178.8" font-family="Times,serif" font-size="14.00">I</text>
<text text-anchor="start" x="211" y="-178.8" font-family="Times,serif" baseline-shift="sub" font-size="14.00">10</text>
</g>
<g id="clust12" class="cluster">
<title>cluster_I11</title>
<polygon fill="none" stroke="black" points="102,-396 102,-473 288,-473 288,-396 102,-396"/>
<text text-anchor="start" x="184" y="-458.8" font-family="Times,serif" font-size="14.00">I</text>
<text text-anchor="start" x="190" y="-458.8" font-family="Times,serif" baseline-shift="sub" font-size="14.00">11</text>
</g>
<!-- node0 -->
<g id="node1" class="node">
<title>node0</title>
<text text-anchor="middle" x="264" y="-856.8" font-family="Times,serif" font-size="14.00">[Pair &#45;&gt; • ( ), (]</text>
<text text-anchor="middle" x="264" y="-841.8" font-family="Times,serif" font-size="14.00">[S &#45;&gt; • List, $]</text>
<text text-anchor="middle" x="264" y="-826.8" font-family="Times,serif" font-size="14.00">[Pair &#45;&gt; • ( ), $]</text>
<text text-anchor="middle" x="264" y="-811.8" font-family="Times,serif" font-size="14.00">[List &#45;&gt; • List Pair, $]</text>
<text text-anchor="middle" x="264" y="-796.8" font-family="Times,serif" font-size="14.00">[List &#45;&gt; • Pair, $]</text>
<text text-anchor="middle" x="264" y="-781.8" font-family="Times,serif" font-size="14.00">[Pair &#45;&gt; • ( Pair ), (]</text>
<text text-anchor="middle" x="264" y="-766.8" font-family="Times,serif" font-size="14.00">[List &#45;&gt; • Pair, (]</text>
<text text-anchor="middle" x="264" y="-751.8" font-family="Times,serif" font-size="14.00">[Pair &#45;&gt; • ( Pair ), $]</text>
<text text-anchor="middle" x="264" y="-736.8" font-family="Times,serif" font-size="14.00">[List &#45;&gt; • List Pair, (]</text>
</g>
<!-- node1 -->
<g id="node2" class="node">
<title>node1</title>
<text text-anchor="middle" x="86" y="-604.3" font-family="Times,serif" font-size="14.00">[List &#45;&gt; Pair •, $]</text>
<text text-anchor="middle" x="86" y="-589.3" font-family="Times,serif" font-size="14.00">[List &#45;&gt; Pair •, (]</text>
</g>
<!-- node0&#45;&gt;node1 -->
<g id="edge9" class="edge">
<title>node0&#45;&gt;node1</title>
<path fill="none" stroke="black" d="M193.43,-721C174.55,-700 154.51,-677.71 136.91,-658.13"/>
<polygon fill="black" stroke="black" points="139.33,-655.59 130.05,-650.5 134.13,-660.27 139.33,-655.59"/>
<text text-anchor="middle" x="198" y="-699.8" font-family="Times,serif" font-size="14.00"> Pair</text>
</g>
<!-- node3 -->
<g id="node4" class="node">
<title>node3</title>
<text text-anchor="middle" x="264" y="-641.8" font-family="Times,serif" font-size="14.00">[Pair &#45;&gt; • ( ), (]</text>
<text text-anchor="middle" x="264" y="-626.8" font-family="Times,serif" font-size="14.00">[S &#45;&gt; List •, $]</text>
<text text-anchor="middle" x="264" y="-611.8" font-family="Times,serif" font-size="14.00">[Pair &#45;&gt; • ( ), $]</text>
<text text-anchor="middle" x="264" y="-596.8" font-family="Times,serif" font-size="14.00">[List &#45;&gt; List • Pair, $]</text>
<text text-anchor="middle" x="264" y="-581.8" font-family="Times,serif" font-size="14.00">[Pair &#45;&gt; • ( Pair ), (]</text>
<text text-anchor="middle" x="264" y="-566.8" font-family="Times,serif" font-size="14.00">[Pair &#45;&gt; • ( Pair ), $]</text>
<text text-anchor="middle" x="264" y="-551.8" font-family="Times,serif" font-size="14.00">[List &#45;&gt; List • Pair, (]</text>
</g>
<!-- node0&#45;&gt;node3 -->
<g id="edge10" class="edge">
<title>node0&#45;&gt;node3</title>
<path fill="none" stroke="black" d="M264,-721C264,-713.53 264,-705.9 264,-698.28"/>
<polygon fill="black" stroke="black" points="267.5,-698 264,-688 260.5,-698 267.5,-698"/>
<text text-anchor="middle" x="280" y="-699.8" font-family="Times,serif" font-size="14.00"> List</text>
</g>
<!-- node4 -->
<g id="node5" class="node">
<title>node4</title>
<text text-anchor="middle" x="384" y="-456.8" font-family="Times,serif" font-size="14.00">[Pair &#45;&gt; ( • ), (]</text>
<text text-anchor="middle" x="384" y="-441.8" font-family="Times,serif" font-size="14.00">[Pair &#45;&gt; ( • ), $]</text>
<text text-anchor="middle" x="384" y="-426.8" font-family="Times,serif" font-size="14.00">[Pair &#45;&gt; • ( Pair ), )]</text>
<text text-anchor="middle" x="384" y="-411.8" font-family="Times,serif" font-size="14.00">[Pair &#45;&gt; ( • Pair ), (]</text>
<text text-anchor="middle" x="384" y="-396.8" font-family="Times,serif" font-size="14.00">[Pair &#45;&gt; ( • Pair ), $]</text>
<text text-anchor="middle" x="384" y="-381.8" font-family="Times,serif" font-size="14.00">[Pair &#45;&gt; • ( ), )]</text>
</g>
<!-- node0&#45;&gt;node4 -->
<g id="edge1" class="edge">
<title>node0&#45;&gt;node4</title>
<path fill="none" stroke="black" d="M341.42,-721C348.71,-710.51 355.16,-699.42 360,-688 383.32,-632.96 389.15,-565.82 389.24,-513.02"/>
<polygon fill="black" stroke="black" points="392.74,-512.98 389.19,-503 385.74,-513.02 392.74,-512.98"/>
<text text-anchor="middle" x="393" y="-596.8" font-family="Times,serif" font-size="14.00"> (</text>
</g>
<!-- node2 -->
<g id="node3" class="node">
<title>node2</title>
<text text-anchor="middle" x="216" y="-271.8" font-family="Times,serif" font-size="14.00">[Pair &#45;&gt; ( Pair • ), (]</text>
<text text-anchor="middle" x="216" y="-256.8" font-family="Times,serif" font-size="14.00">[Pair &#45;&gt; ( Pair • ), $]</text>
</g>
<!-- node10 -->
<g id="node11" class="node">
<title>node10</title>
<text text-anchor="middle" x="216" y="-146.8" font-family="Times,serif" font-size="14.00">[Pair &#45;&gt; ( Pair ) •, (]</text>
<text text-anchor="middle" x="216" y="-131.8" font-family="Times,serif" font-size="14.00">[Pair &#45;&gt; ( Pair ) •, $]</text>
</g>
<!-- node2&#45;&gt;node10 -->
<g id="edge2" class="edge">
<title>node2&#45;&gt;node10</title>
<path fill="none" stroke="black" d="M216,-241C216,-229.93 216,-216.52 216,-203.26"/>
<polygon fill="black" stroke="black" points="219.5,-203 216,-193 212.5,-203 219.5,-203"/>
<text text-anchor="middle" x="221" y="-204.8" font-family="Times,serif" font-size="14.00"> )</text>
</g>
<!-- node3&#45;&gt;node4 -->
<g id="edge3" class="edge">
<title>node3&#45;&gt;node4</title>
<path fill="none" stroke="black" d="M307.42,-536C312.88,-528.01 318.54,-519.73 324.21,-511.45"/>
<polygon fill="black" stroke="black" points="327.23,-513.23 329.98,-503 321.45,-509.28 327.23,-513.23"/>
<text text-anchor="middle" x="329" y="-514.8" font-family="Times,serif" font-size="14.00"> (</text>
</g>
<!-- node11 -->
<g id="node12" class="node">
<title>node11</title>
<text text-anchor="middle" x="195" y="-426.8" font-family="Times,serif" font-size="14.00">[List &#45;&gt; List Pair •, $]</text>
<text text-anchor="middle" x="195" y="-411.8" font-family="Times,serif" font-size="14.00">[List &#45;&gt; List Pair •, (]</text>
</g>
<!-- node3&#45;&gt;node11 -->
<g id="edge11" class="edge">
<title>node3&#45;&gt;node11</title>
<path fill="none" stroke="black" d="M239.04,-536C232.17,-518.54 224.76,-499.69 218.01,-482.52"/>
<polygon fill="black" stroke="black" points="221.18,-481.02 214.26,-473 214.67,-483.59 221.18,-481.02"/>
<text text-anchor="middle" x="250" y="-514.8" font-family="Times,serif" font-size="14.00"> Pair</text>
</g>
<!-- node4&#45;&gt;node2 -->
<g id="edge12" class="edge">
<title>node4&#45;&gt;node2</title>
<path fill="none" stroke="black" d="M322.51,-366C307.75,-352.56 291.98,-338.2 277.23,-324.77"/>
<polygon fill="black" stroke="black" points="279.55,-322.14 269.8,-318 274.84,-327.32 279.55,-322.14"/>
<text text-anchor="middle" x="327" y="-344.8" font-family="Times,serif" font-size="14.00"> Pair</text>
</g>
<!-- node5 -->
<g id="node6" class="node">
<title>node5</title>
<text text-anchor="middle" x="384" y="-271.8" font-family="Times,serif" font-size="14.00">[Pair &#45;&gt; ( ) •, (]</text>
<text text-anchor="middle" x="384" y="-256.8" font-family="Times,serif" font-size="14.00">[Pair &#45;&gt; ( ) •, $]</text>
</g>
<!-- node4&#45;&gt;node5 -->
<g id="edge4" class="edge">
<title>node4&#45;&gt;node5</title>
<path fill="none" stroke="black" d="M384,-366C384,-353.7 384,-340.64 384,-328.21"/>
<polygon fill="black" stroke="black" points="387.5,-328 384,-318 380.5,-328 387.5,-328"/>
<text text-anchor="middle" x="389" y="-344.8" font-family="Times,serif" font-size="14.00"> )</text>
</g>
<!-- node6 -->
<g id="node7" class="node">
<title>node6</title>
<text text-anchor="middle" x="550" y="-286.8" font-family="Times,serif" font-size="14.00">[Pair &#45;&gt; • ( ), )]</text>
<text text-anchor="middle" x="550" y="-271.8" font-family="Times,serif" font-size="14.00">[Pair &#45;&gt; • ( Pair ), )]</text>
<text text-anchor="middle" x="550" y="-256.8" font-family="Times,serif" font-size="14.00">[Pair &#45;&gt; ( • ), )]</text>
<text text-anchor="middle" x="550" y="-241.8" font-family="Times,serif" font-size="14.00">[Pair &#45;&gt; ( • Pair ), )]</text>
</g>
<!-- node4&#45;&gt;node6 -->
<g id="edge5" class="edge">
<title>node4&#45;&gt;node6</title>
<path fill="none" stroke="black" d="M444.75,-366C453.92,-357.56 463.47,-348.75 472.92,-340.04"/>
<polygon fill="black" stroke="black" points="475.58,-342.35 480.56,-333 470.84,-337.2 475.58,-342.35"/>
<text text-anchor="middle" x="472" y="-344.8" font-family="Times,serif" font-size="14.00"> (</text>
</g>
<!-- node6&#45;&gt;node6 -->
<g id="edge6" class="edge">
<title>node6&#45;&gt;node6</title>
<path fill="none" stroke="black" d="M628.35,-277.65C638.94,-276.03 646,-272.81 646,-268 646,-264.92 643.1,-262.49 638.24,-260.72"/>
<polygon fill="black" stroke="black" points="638.89,-257.27 628.35,-258.35 637.26,-264.08 638.89,-257.27"/>
<text text-anchor="middle" x="651" y="-264.3" font-family="Times,serif" font-size="14.00"> (</text>
</g>
<!-- node7 -->
<g id="node8" class="node">
<title>node7</title>
<text text-anchor="middle" x="571" y="-139.3" font-family="Times,serif" font-size="14.00">[Pair &#45;&gt; ( Pair • ), )]</text>
</g>
<!-- node6&#45;&gt;node7 -->
<g id="edge13" class="edge">
<title>node6&#45;&gt;node7</title>
<path fill="none" stroke="black" d="M557,-226C558.32,-218.28 559.72,-210.06 561.11,-201.93"/>
<polygon fill="black" stroke="black" points="564.57,-202.44 562.81,-192 557.67,-201.26 564.57,-202.44"/>
<text text-anchor="middle" x="578" y="-204.8" font-family="Times,serif" font-size="14.00"> Pair</text>
</g>
<!-- node8 -->
<g id="node9" class="node">
<title>node8</title>
<text text-anchor="middle" x="407" y="-139.3" font-family="Times,serif" font-size="14.00">[Pair &#45;&gt; ( ) •, )]</text>
</g>
<!-- node6&#45;&gt;node8 -->
<g id="edge7" class="edge">
<title>node6&#45;&gt;node8</title>
<path fill="none" stroke="black" d="M502.34,-226C492.12,-217.22 481.18,-207.8 470.47,-198.6"/>
<polygon fill="black" stroke="black" points="472.66,-195.86 462.8,-192 468.1,-201.17 472.66,-195.86"/>
<text text-anchor="middle" x="492" y="-204.8" font-family="Times,serif" font-size="14.00"> )</text>
</g>
<!-- node9 -->
<g id="node10" class="node">
<title>node9</title>
<text text-anchor="middle" x="571" y="-30.3" font-family="Times,serif" font-size="14.00">[Pair &#45;&gt; ( Pair ) •, )]</text>
</g>
<!-- node7&#45;&gt;node9 -->
<g id="edge8" class="edge">
<title>node7&#45;&gt;node9</title>
<path fill="none" stroke="black" d="M571,-117C571,-109.77 571,-101.55 571,-93.18"/>
<polygon fill="black" stroke="black" points="574.5,-93 571,-83 567.5,-93 574.5,-93"/>
<text text-anchor="middle" x="576" y="-94.8" font-family="Times,serif" font-size="14.00"> )</text>
</g>
</g>
</svg>
